<mxfile host="Electron" modified="2024-05-08T15:05:12.219Z" agent="Mozilla/5.0 (Windows NT 10.0; Win64; x64) AppleWebKit/537.36 (KHTML, like Gecko) draw.io/24.2.5 Chrome/120.0.6099.109 Electron/28.1.0 Safari/537.36" etag="H5NiA8bGsnp8GywhSelg" version="24.2.5" type="device">
  <diagram name="PÃ¡gina-1" id="v0G33qJklUCGDR-_3eXj">
    <mxGraphModel dx="1036" dy="606" grid="1" gridSize="10" guides="1" tooltips="1" connect="1" arrows="1" fold="1" page="1" pageScale="1" pageWidth="827" pageHeight="1169" math="0" shadow="0">
      <root>
        <mxCell id="0" />
        <mxCell id="1" parent="0" />
        <mxCell id="7C6Q7lpz1kXMN5dlmDtR-4" value="" style="edgeStyle=orthogonalEdgeStyle;rounded=0;orthogonalLoop=1;jettySize=auto;html=1;exitX=-0.035;exitY=0.422;exitDx=0;exitDy=0;exitPerimeter=0;entryX=0.5;entryY=0;entryDx=0;entryDy=0;" edge="1" parent="1" source="7C6Q7lpz1kXMN5dlmDtR-7" target="7C6Q7lpz1kXMN5dlmDtR-8">
          <mxGeometry relative="1" as="geometry">
            <mxPoint x="354" y="90" as="sourcePoint" />
            <mxPoint x="280" y="200" as="targetPoint" />
          </mxGeometry>
        </mxCell>
        <mxCell id="7C6Q7lpz1kXMN5dlmDtR-6" value="" style="edgeStyle=orthogonalEdgeStyle;rounded=0;orthogonalLoop=1;jettySize=auto;html=1;exitX=-0.02;exitY=0.413;exitDx=0;exitDy=0;exitPerimeter=0;entryX=0.5;entryY=0;entryDx=0;entryDy=0;" edge="1" parent="1" source="7C6Q7lpz1kXMN5dlmDtR-8" target="7C6Q7lpz1kXMN5dlmDtR-13">
          <mxGeometry relative="1" as="geometry">
            <mxPoint x="220" y="220" as="sourcePoint" />
            <mxPoint x="170" y="320" as="targetPoint" />
          </mxGeometry>
        </mxCell>
        <mxCell id="7C6Q7lpz1kXMN5dlmDtR-10" value="" style="edgeStyle=orthogonalEdgeStyle;rounded=0;orthogonalLoop=1;jettySize=auto;html=1;" edge="1" parent="1" source="7C6Q7lpz1kXMN5dlmDtR-7" target="7C6Q7lpz1kXMN5dlmDtR-9">
          <mxGeometry relative="1" as="geometry" />
        </mxCell>
        <mxCell id="7C6Q7lpz1kXMN5dlmDtR-12" value="" style="edgeStyle=orthogonalEdgeStyle;rounded=0;orthogonalLoop=1;jettySize=auto;html=1;" edge="1" parent="1" source="7C6Q7lpz1kXMN5dlmDtR-7" target="7C6Q7lpz1kXMN5dlmDtR-11">
          <mxGeometry relative="1" as="geometry" />
        </mxCell>
        <mxCell id="7C6Q7lpz1kXMN5dlmDtR-7" value="main" style="ellipse;whiteSpace=wrap;html=1;aspect=fixed;" vertex="1" parent="1">
          <mxGeometry x="370" y="50" width="80" height="80" as="geometry" />
        </mxCell>
        <mxCell id="7C6Q7lpz1kXMN5dlmDtR-8" value="somar" style="ellipse;whiteSpace=wrap;html=1;aspect=fixed;" vertex="1" parent="1">
          <mxGeometry x="200" y="170" width="80" height="80" as="geometry" />
        </mxCell>
        <mxCell id="7C6Q7lpz1kXMN5dlmDtR-27" value="" style="edgeStyle=orthogonalEdgeStyle;rounded=0;orthogonalLoop=1;jettySize=auto;html=1;" edge="1" parent="1" source="7C6Q7lpz1kXMN5dlmDtR-9" target="7C6Q7lpz1kXMN5dlmDtR-18">
          <mxGeometry relative="1" as="geometry" />
        </mxCell>
        <mxCell id="7C6Q7lpz1kXMN5dlmDtR-9" value="subtrair" style="ellipse;whiteSpace=wrap;html=1;" vertex="1" parent="1">
          <mxGeometry x="370" y="170" width="80" height="80" as="geometry" />
        </mxCell>
        <mxCell id="7C6Q7lpz1kXMN5dlmDtR-24" value="" style="edgeStyle=orthogonalEdgeStyle;rounded=0;orthogonalLoop=1;jettySize=auto;html=1;" edge="1" parent="1" source="7C6Q7lpz1kXMN5dlmDtR-11" target="7C6Q7lpz1kXMN5dlmDtR-21">
          <mxGeometry relative="1" as="geometry" />
        </mxCell>
        <mxCell id="7C6Q7lpz1kXMN5dlmDtR-11" value="multiplicar" style="ellipse;whiteSpace=wrap;html=1;" vertex="1" parent="1">
          <mxGeometry x="540" y="170" width="80" height="80" as="geometry" />
        </mxCell>
        <mxCell id="7C6Q7lpz1kXMN5dlmDtR-15" value="" style="edgeStyle=orthogonalEdgeStyle;rounded=0;orthogonalLoop=1;jettySize=auto;html=1;" edge="1" parent="1" source="7C6Q7lpz1kXMN5dlmDtR-13" target="7C6Q7lpz1kXMN5dlmDtR-14">
          <mxGeometry relative="1" as="geometry" />
        </mxCell>
        <mxCell id="7C6Q7lpz1kXMN5dlmDtR-13" value="printf()" style="rounded=1;whiteSpace=wrap;html=1;" vertex="1" parent="1">
          <mxGeometry x="100" y="310" width="120" height="60" as="geometry" />
        </mxCell>
        <mxCell id="7C6Q7lpz1kXMN5dlmDtR-17" value="" style="edgeStyle=orthogonalEdgeStyle;rounded=0;orthogonalLoop=1;jettySize=auto;html=1;" edge="1" parent="1" source="7C6Q7lpz1kXMN5dlmDtR-14" target="7C6Q7lpz1kXMN5dlmDtR-16">
          <mxGeometry relative="1" as="geometry" />
        </mxCell>
        <mxCell id="7C6Q7lpz1kXMN5dlmDtR-14" value="scanf()" style="whiteSpace=wrap;html=1;rounded=1;" vertex="1" parent="1">
          <mxGeometry x="100" y="405" width="120" height="60" as="geometry" />
        </mxCell>
        <mxCell id="7C6Q7lpz1kXMN5dlmDtR-16" value="return" style="ellipse;whiteSpace=wrap;html=1;aspect=fixed;" vertex="1" parent="1">
          <mxGeometry x="120" y="505" width="80" height="80" as="geometry" />
        </mxCell>
        <mxCell id="7C6Q7lpz1kXMN5dlmDtR-28" value="" style="edgeStyle=orthogonalEdgeStyle;rounded=0;orthogonalLoop=1;jettySize=auto;html=1;" edge="1" parent="1" source="7C6Q7lpz1kXMN5dlmDtR-18" target="7C6Q7lpz1kXMN5dlmDtR-19">
          <mxGeometry relative="1" as="geometry" />
        </mxCell>
        <mxCell id="7C6Q7lpz1kXMN5dlmDtR-18" value="printf()" style="rounded=1;whiteSpace=wrap;html=1;" vertex="1" parent="1">
          <mxGeometry x="350" y="310" width="120" height="60" as="geometry" />
        </mxCell>
        <mxCell id="7C6Q7lpz1kXMN5dlmDtR-29" value="" style="edgeStyle=orthogonalEdgeStyle;rounded=0;orthogonalLoop=1;jettySize=auto;html=1;" edge="1" parent="1" source="7C6Q7lpz1kXMN5dlmDtR-19" target="7C6Q7lpz1kXMN5dlmDtR-20">
          <mxGeometry relative="1" as="geometry" />
        </mxCell>
        <mxCell id="7C6Q7lpz1kXMN5dlmDtR-19" value="scanf()" style="whiteSpace=wrap;html=1;rounded=1;" vertex="1" parent="1">
          <mxGeometry x="350" y="410" width="120" height="60" as="geometry" />
        </mxCell>
        <mxCell id="7C6Q7lpz1kXMN5dlmDtR-20" value="return" style="ellipse;whiteSpace=wrap;html=1;aspect=fixed;" vertex="1" parent="1">
          <mxGeometry x="370" y="510" width="80" height="80" as="geometry" />
        </mxCell>
        <mxCell id="7C6Q7lpz1kXMN5dlmDtR-25" value="" style="edgeStyle=orthogonalEdgeStyle;rounded=0;orthogonalLoop=1;jettySize=auto;html=1;" edge="1" parent="1" source="7C6Q7lpz1kXMN5dlmDtR-21" target="7C6Q7lpz1kXMN5dlmDtR-22">
          <mxGeometry relative="1" as="geometry" />
        </mxCell>
        <mxCell id="7C6Q7lpz1kXMN5dlmDtR-21" value="printf()" style="rounded=1;whiteSpace=wrap;html=1;" vertex="1" parent="1">
          <mxGeometry x="560" y="305" width="120" height="60" as="geometry" />
        </mxCell>
        <mxCell id="7C6Q7lpz1kXMN5dlmDtR-26" value="" style="edgeStyle=orthogonalEdgeStyle;rounded=0;orthogonalLoop=1;jettySize=auto;html=1;" edge="1" parent="1" source="7C6Q7lpz1kXMN5dlmDtR-22" target="7C6Q7lpz1kXMN5dlmDtR-23">
          <mxGeometry relative="1" as="geometry" />
        </mxCell>
        <mxCell id="7C6Q7lpz1kXMN5dlmDtR-22" value="scanf()" style="whiteSpace=wrap;html=1;rounded=1;" vertex="1" parent="1">
          <mxGeometry x="560" y="405" width="120" height="60" as="geometry" />
        </mxCell>
        <mxCell id="7C6Q7lpz1kXMN5dlmDtR-23" value="return" style="ellipse;whiteSpace=wrap;html=1;aspect=fixed;" vertex="1" parent="1">
          <mxGeometry x="580" y="505" width="80" height="80" as="geometry" />
        </mxCell>
      </root>
    </mxGraphModel>
  </diagram>
</mxfile>
